<svg xmlns="http://www.w3.org/2000/svg"  viewBox="0 0 48 48" width="48px" height="48px" baseProfile="basic"><path d="M45,25c0-11.579-9.42-21-21-21S3,13.421,3,25c0,0.425,0,1.753,0,2c0,3.05,0.486,6.16,4,6.254V39c0,1.654,1.346,3,3,3h28	c1.654,0,3-1.346,3-3v-5.746c3.514-0.094,4-3.204,4-6.254C45,26.753,45,25.425,45,25z"/><path fill="#fff" d="M38,39H10c-1.105,0-2-0.895-2-2V19h32v18C40,38.105,39.105,39,38,39z"/><path d="M38,40H10c-1.654,0-3-1.346-3-3V19c0-0.553,0.448-1,1-1h32c0.552,0,1,0.447,1,1v18C41,38.654,39.654,40,38,40z M9,20v17	c0,0.552,0.449,1,1,1h28c0.551,0,1-0.448,1-1V20H9z"/><path fill="#fff" d="M9.597,28.057c0,0-0.929,2.206-2.439,2.206C5.053,30.263,4,29.187,4,25C4,13.954,12.954,5,24,5	s20,8.954,20,20c0,4.187-1.053,5.263-3.158,5.263c-1.51,0-2.439-2.206-2.439-2.206"/><path d="M40.842,31.263c-2.112,0-3.239-2.528-3.361-2.816c-0.215-0.509,0.024-1.096,0.533-1.311c0.509-0.213,1.095,0.025,1.31,0.533	c0.213,0.497,0.894,1.594,1.518,1.594c1.061,0,2.158,0,2.158-4.263c0-10.477-8.523-19-19-19S5,14.523,5,25	c0,4.263,1.097,4.263,2.158,4.263c0.598,0,1.284-1.038,1.518-1.594c0.215-0.508,0.801-0.746,1.31-0.533	c0.509,0.215,0.748,0.802,0.533,1.311c-0.122,0.288-1.249,2.816-3.361,2.816C3.494,31.263,3,28.097,3,25C3,13.421,12.42,4,24,4	s21,9.421,21,21C45,28.097,44.506,31.263,40.842,31.263z"/><path d="M18,16c-2.209,0-4,1.791-4,4c0,2.209,1.791,4,4,4s4-1.791,4-4C22,17.791,20.209,16,18,16z M18.5,23	c-1.381,0-2.5-1.119-2.5-2.5c0-1.381,1.119-2.5,2.5-2.5s2.5,1.119,2.5,2.5C21,21.881,19.881,23,18.5,23z"/><ellipse cx="24" cy="27" rx="4" ry="2"/><path d="M26,20c0,2.209,1.791,4,4,4s4-1.791,4-4c0-2.209-1.791-4-4-4S26,17.791,26,20z M27,20.5c0-1.381,1.119-2.5,2.5-2.5	s2.5,1.119,2.5,2.5c0,1.381-1.119,2.5-2.5,2.5S27,21.881,27,20.5z"/><path fill="#fff" d="M26,28c0,2.757,0.788,6.821,3.677,6.821C31.801,34.821,33,32.753,33,30c0-3.866-3-9-9-9s-9,5.134-9,9	c0,2.753,1.199,4.821,3.323,4.821C21.212,34.821,22,30.757,22,28H26z"/><path d="M29.677,35.82c-3.146,0-4.444-3.36-4.648-6.82h-2.059c-0.204,3.46-1.502,6.82-4.648,6.82C15.737,35.82,14,33.481,14,30	c0-4.81,3.823-10,10-10s10,5.19,10,10C34,33.481,32.263,35.82,29.677,35.82z M22,27h4c0.552,0,1,0.447,1,1	c0,2.162,0.564,5.82,2.677,5.82C31.392,33.82,32,31.763,32,30c0-3.227-2.542-8-8-8s-8,4.773-8,8c0,1.763,0.608,3.82,2.323,3.82	C20.436,33.82,21,30.162,21,28C21,27.447,21.448,27,22,27z"/><path d="M27.712,32.311c-0.379-0.393-1.009-0.403-1.408-0.029C26.273,32.311,25.519,33,24,33s-2.273-0.689-2.293-0.707	c-0.391-0.391-1.023-0.391-1.414,0s-0.391,1.023,0,1.414C20.425,33.84,21.653,35,24,35s3.575-1.16,3.707-1.293	C28.093,33.321,28.092,32.703,27.712,32.311z"/><ellipse cx="24" cy="27" rx="4" ry="2"/></svg>